<svg xmlns="http://www.w3.org/2000/svg" width="1400" height="928" viewBox="0 0 1400 928">
  <defs>
    <marker id="arrow" markerWidth="12" markerHeight="12" refX="5" refY="3" orient="auto" markerUnits="strokeWidth">
      <path d="M0,0 L0,6 L6,3 z" fill="#94a3b8" />
    </marker>
  </defs>
  <rect width="100%" height="100%" fill="#f8fafc"/>
  <text x="700" y="58" text-anchor="middle" font-family="Arial" font-size="34" fill="#0f172a" font-weight="700">New Google Review Email Flow</text>
  <text x="700" y="88" text-anchor="middle" font-family="Arial" font-size="18" fill="#64748b">Flow diagram generated from the Plumbot CRM funnel</text>
  
  <rect x="110" y="120" width="1180" height="72" rx="10" fill="#ffffff" stroke="#0f766e" stroke-width="2"/>
  <circle cx="148" cy="156" r="22" fill="#0f766e"/>
  <text x="148" y="163" text-anchor="middle" font-size="20" font-family="Arial" fill="#ffffff" font-weight="700">1</text>
  <text x="190" y="151" font-size="22" font-family="Arial" fill="#0f172a" font-weight="700">Job marked complete</text>
  <text x="190" y="177" font-size="17" font-family="Arial" fill="#475569">Staff updates the job status after work is delivered.</text>
  <path d="M700 194 L700 226" stroke="#94a3b8" stroke-width="3" marker-end="url(#arrow)"/>
  <rect x="110" y="238" width="1180" height="72" rx="10" fill="#ffffff" stroke="#0f766e" stroke-width="2"/>
  <circle cx="148" cy="274" r="22" fill="#0f766e"/>
  <text x="148" y="281" text-anchor="middle" font-size="20" font-family="Arial" fill="#ffffff" font-weight="700">2</text>
  <text x="190" y="269" font-size="22" font-family="Arial" fill="#0f172a" font-weight="700">Eligibility check</text>
  <text x="190" y="295" font-size="17" font-family="Arial" fill="#475569">System checks customer email and whether a review request was already sent.</text>
  <path d="M700 312 L700 344" stroke="#94a3b8" stroke-width="3" marker-end="url(#arrow)"/>
  <rect x="110" y="356" width="1180" height="72" rx="10" fill="#ffffff" stroke="#0f766e" stroke-width="2"/>
  <circle cx="148" cy="392" r="22" fill="#0f766e"/>
  <text x="148" y="399" text-anchor="middle" font-size="20" font-family="Arial" fill="#ffffff" font-weight="700">3</text>
  <text x="190" y="387" font-size="22" font-family="Arial" fill="#0f172a" font-weight="700">Review email sent</text>
  <text x="190" y="413" font-size="17" font-family="Arial" fill="#475569">Customer receives a thank-you email with direct Google review link.</text>
  <path d="M700 430 L700 462" stroke="#94a3b8" stroke-width="3" marker-end="url(#arrow)"/>
  <rect x="110" y="474" width="1180" height="72" rx="10" fill="#ffffff" stroke="#0f766e" stroke-width="2"/>
  <circle cx="148" cy="510" r="22" fill="#0f766e"/>
  <text x="148" y="517" text-anchor="middle" font-size="20" font-family="Arial" fill="#ffffff" font-weight="700">4</text>
  <text x="190" y="505" font-size="22" font-family="Arial" fill="#0f172a" font-weight="700">Tracking updated</text>
  <text x="190" y="531" font-size="17" font-family="Arial" fill="#475569">Timestamp/status prevents duplicate requests.</text>
  <path d="M700 548 L700 580" stroke="#94a3b8" stroke-width="3" marker-end="url(#arrow)"/>
  <rect x="110" y="592" width="1180" height="72" rx="10" fill="#ffffff" stroke="#0f766e" stroke-width="2"/>
  <circle cx="148" cy="628" r="22" fill="#0f766e"/>
  <text x="148" y="635" text-anchor="middle" font-size="20" font-family="Arial" fill="#ffffff" font-weight="700">5</text>
  <text x="190" y="623" font-size="22" font-family="Arial" fill="#0f172a" font-weight="700">Dashboard follow-up</text>
  <text x="190" y="649" font-size="17" font-family="Arial" fill="#475569">Failed or skipped emails are visible for manual rescue.</text>
  <path d="M700 666 L700 698" stroke="#94a3b8" stroke-width="3" marker-end="url(#arrow)"/>
  <rect x="110" y="710" width="1180" height="72" rx="10" fill="#ffffff" stroke="#0f766e" stroke-width="2"/>
  <circle cx="148" cy="746" r="22" fill="#0f766e"/>
  <text x="148" y="753" text-anchor="middle" font-size="20" font-family="Arial" fill="#ffffff" font-weight="700">6</text>
  <text x="190" y="741" font-size="22" font-family="Arial" fill="#0f172a" font-weight="700">Reputation gain</text>
  <text x="190" y="767" font-size="17" font-family="Arial" fill="#475569">More public reviews improve trust, local search visibility, and future conversion.</text>

</svg>
